<?xml version="1.0" encoding="utf-8"?>
<!-- Generator: Adobe Illustrator 26.0.1, SVG Export Plug-In . SVG Version: 6.00 Build 0)  -->
<svg version="1.1" id="Calque_1" xmlns="http://www.w3.org/2000/svg" xmlns:xlink="http://www.w3.org/1999/xlink" x="0px" y="0px"
	 viewBox="0 0 638.9 227.2" style="enable-background:new 0 0 638.9 227.2;" xml:space="preserve">
<style type="text/css">
	.st0{display:none;fill:#C6D767;}
	.st1{fill:#C6D767;}
	.st2{fill:#FFFFFF;}
	.st3{font-family:'NewYork';}
	.st4{font-size:164px;}
</style>
<rect x="-222" y="-365.7" class="st0" width="1080.9" height="960"/>
<path id="SVGID_x5F_1_x5F_" style="fill:none;" d="M-3711.8-1877.5c22.3-9.2,47.8,1.3,57,23.6s-1.3,47.8-23.6,57
	c-22.3,9.2-47.8-1.3-57-23.6S-3734.1-1868.3-3711.8-1877.5z"/>
<text style="display:none;"><textPath  xlink:href="#SVGID_x5F_1_x5F_" startOffset="0%"  style="display:inline;">
<tspan  class="st2" style="font-family:'Cailyne'; font-size:22.3133px;">Resturant</tspan></textPath>
</text>
<image style="display:none;overflow:visible;" width="3000" height="1800" xlink:href="O6AAEB1.png"  transform="matrix(0.3744 0 0 0.3744 -4697.0249 -1602.5277)">
</image>
<path id="SVGID_x5F_00000163037494480259759440000001656538323439299004_x5F_" style="fill:none;" d="M-3901.4-2381.5
	c33.9-14.1,72.8,2,86.9,35.9c14.1,33.9-2,72.8-35.9,86.9c-33.9,14.1-72.8-2-86.9-35.9C-3951.4-2328.5-3935.3-2367.4-3901.4-2381.5z"
	/>
<text style="display:none;"><textPath  xlink:href="#SVGID_x5F_00000163037494480259759440000001656538323439299004_x5F_" startOffset="0%"  style="display:inline;">
<tspan  style="font-family:'Cailyne'; font-size:34px;">Resturant</tspan></textPath>
</text>
<text transform="matrix(1 0 0 1 -3120.2161 -1991.489)" style="display:none; font-family:'Cailyne'; font-size:34px;">Your Slogon here</text>
<text transform="matrix(1 0 0 1 -2020.2162 -910.0771)" style="display:none; font-family:'Cailyne'; font-size:34px;">Your Slogon here</text>
<text transform="matrix(1 0 0 1 -2020.2162 -1991.4889)" style="display:none; font-family:'Cailyne'; font-size:34px;">Your Slogon here</text>
<circle class="st1" cx="113.6" cy="113.6" r="113.6"/>
<g>
	<text transform="matrix(1 0 0 1 36.2345 164.2746)" class="st2 st3 st4">Kanteen</text>
</g>
<text transform="matrix(1 0 0 1 234.6056 -907.2538)" style="display:none; font-family:'Cailyne'; font-size:34px;">Your Slogon here</text>
<text transform="matrix(1 0 0 1 -920.2181 -907.2538)" style="display:none; font-family:'Cailyne'; font-size:34px;">Your Slogon here</text>
<text transform="matrix(1 0 0 1 -920.2162 -1991.4891)" style="display:none; font-family:'Cailyne'; font-size:34px;">Your Slogon here</text>
</svg>
