<?xml version="1.0" encoding="utf-8"?>
<!-- Generator: Adobe Illustrator 26.0.1, SVG Export Plug-In . SVG Version: 6.00 Build 0)  -->
<svg version="1.1" id="Calque_1" xmlns="http://www.w3.org/2000/svg" xmlns:xlink="http://www.w3.org/1999/xlink" x="0px" y="0px"
	 viewBox="0 0 1251.6 445.1" style="enable-background:new 0 0 1251.6 445.1;" xml:space="preserve">
<style type="text/css">
	.st0{fill:#C6D767;}
	.st1{fill:#FFFFFF;}
	.st2{font-family:'NewYork';}
	.st3{font-size:321.2704px;}
</style>
<path id="SVGID_x5F_1_x5F_" style="fill:none;" d="M-3029.1-1970.8c22.3-9.2,47.8,1.3,57,23.6c9.2,22.3-1.3,47.8-23.6,57
	s-47.8-1.3-57-23.6C-3061.9-1936-3051.4-1961.6-3029.1-1970.8z"/>
<text style="display:none;"><textPath  xlink:href="#SVGID_x5F_1_x5F_" startOffset="0%"  style="display:inline;">
<tspan  class="st1" style="font-family:'Cailyne'; font-size:22.3133px;">Resturant</tspan></textPath>
</text>
<image style="display:none;overflow:visible;" width="3000" height="1800" xlink:href="O6AAEB1.png"  transform="matrix(0.3744 0 0 0.3744 -4014.3582 -1695.8611)">
</image>
<path id="SVGID_x5F_00000042699024056183266260000004556425290797045124_x5F_" style="fill:none;" d="M-3218.7-2474.8
	c33.9-14.1,72.8,2,86.9,35.9c14.1,33.9-2,72.8-35.9,86.9c-33.9,14.1-72.8-2-86.9-35.9C-3268.7-2421.8-3252.6-2460.7-3218.7-2474.8z"
	/>
<text style="display:none;"><textPath  xlink:href="#SVGID_x5F_00000042699024056183266260000004556425290797045124_x5F_" startOffset="0%"  style="display:inline;">
<tspan  style="font-family:'Cailyne'; font-size:34px;">Resturant</tspan></textPath>
</text>
<text transform="matrix(1 0 0 1 -2437.5496 -2084.8223)" style="display:none; font-family:'Cailyne'; font-size:34px;">Your Slogon here</text>
<text transform="matrix(1 0 0 1 -1337.5496 -1003.4105)" style="display:none; font-family:'Cailyne'; font-size:34px;">Your Slogon here</text>
<text transform="matrix(1 0 0 1 -1337.5496 -2084.8223)" style="display:none; font-family:'Cailyne'; font-size:34px;">Your Slogon here</text>
<g>
	<circle class="st0" cx="222.5" cy="222.5" r="222.5"/>
	<text transform="matrix(1 0 0 1 70.9827 321.8093)"><tspan x="0" y="0" class="st1 st2 st3">Ka</tspan><tspan x="363.7" y="0" class="st2 st3">nteen</tspan></text>
</g>
<text transform="matrix(1 0 0 1 917.2723 -1000.5871)" style="display:none; font-family:'Cailyne'; font-size:34px;">Your Slogon here</text>
<text transform="matrix(1 0 0 1 -237.5515 -1000.5871)" style="display:none; font-family:'Cailyne'; font-size:34px;">Your Slogon here</text>
<text transform="matrix(1 0 0 1 -237.5495 -2084.8225)" style="display:none; font-family:'Cailyne'; font-size:34px;">Your Slogon here</text>
</svg>
